<svg xmlns="http://www.w3.org/2000/svg" width="165.103" height="34.858" viewBox="0 0 165.103 34.858">
  <g id="dailyearn-logo" transform="translate(-50 -16.7)">
    <path id="Path_1" data-name="Path 1" d="M235.616,17.4h-5.24a1.606,1.606,0,0,0-.178.007H213.3a5.86,5.86,0,0,1,.468,6.057L216.4,25.6c.745-.573,1.45-1.173,2.214-1.694a4,4,0,0,1,6.268,3.493,3.726,3.726,0,0,1-1.437,2.841c-1.562,1.252-3.131,2.5-4.719,3.711-1.055.811-1.984.916-3.875.573v5.47h6.1v3.585l-5.714,5.714a1.714,1.714,0,0,0,0,2.419h0a1.714,1.714,0,0,0,2.419,0l3.3-3.3V50.5a1.712,1.712,0,0,0,1.707,1.707h0a1.712,1.712,0,0,0,1.707-1.707V48.231l3.473,3.473a1.714,1.714,0,0,0,2.419,0h0a1.714,1.714,0,0,0,0-2.419l-5.9-5.879V40h8.752c1.14-.092,1.648-.692,1.648-1.944q.01-8.2,0-16.384h.83a2.135,2.135,0,0,0,.013-4.271Z" transform="translate(-152.537 -0.654)" fill="#434444" fill-rule="evenodd"/>
    <path id="Path_2" data-name="Path 2" d="M50,149.8v-7.823c0-1.457.982-1.9,2.155-1.99h6.65a2.547,2.547,0,0,1,1.839.659c1.028.9,2.1,1.753,3.19,2.643,1.173-.916,2.3-1.812,3.44-2.7a1.531,1.531,0,0,1,2.287.165,1.558,1.558,0,0,1-.4,2.214q-2.125,1.7-4.284,3.361a1.564,1.564,0,0,1-2.214-.046c-.923-.758-1.944-1.6-2.874-2.267v.877q0,4.785-.007,9.57h-.007v10.393a1.764,1.764,0,0,1-1.648,1.852h0a1.657,1.657,0,0,1-1.509-1.114l-.086-10.453a.624.624,0,0,0-.639-.567h0a.586.586,0,0,0-.593.567v10.176a1.7,1.7,0,0,1-1.595,1.4h0a1.764,1.764,0,0,1-1.648-1.852v-13.1C50.989,151.505,50,150.846,50,149.8Z" transform="translate(0 -115.165)" fill="#d75629" fill-rule="evenodd"/>
    <circle id="Ellipse_1" data-name="Ellipse 1" cx="3.453" cy="3.453" r="3.453" transform="matrix(1, -0.004, 0.004, 1, 52.432, 16.779)" fill="#d75629"/>
    <g id="Group_1" data-name="Group 1" transform="translate(86.189 16.7)">
      <path id="Path_3" data-name="Path 3" d="M612.986,35.159l.066,2.34a1.257,1.257,0,0,0,.125.666.5.5,0,0,0,.442.191,2.413,2.413,0,0,0,.7-.125l.349.283-.442,2.623a5.137,5.137,0,0,1-2.564.857,3.055,3.055,0,0,1-2.755-2.214h-.257a11.607,11.607,0,0,1-3.065,2.182,5.971,5.971,0,0,1-4.778-1.99,8.185,8.185,0,0,1-1.707-5.5,7.877,7.877,0,0,1,2.01-5.806,7.5,7.5,0,0,1,5.549-2.01,8.163,8.163,0,0,1,1.674.158l-.066-6.96,4.963-.349Zm-8.541-4.35a4.237,4.237,0,0,0-.666,2.669,7.565,7.565,0,0,0,.633,3.539,2.047,2.047,0,0,0,1.9,1.14,2.982,2.982,0,0,0,2.122-1.041l.033-1.489-.066-5.154A4.774,4.774,0,0,0,606.435,30,2.462,2.462,0,0,0,604.445,30.81Z" transform="translate(-599.1 -19.315)" fill="#3e3e3e"/>
      <path id="Path_4" data-name="Path 4" d="M865.224,128.034a3.823,3.823,0,0,1,1.456,3.21c0,.488-.02,1.041-.066,1.674s-.072,1.232-.092,1.806c-.105,1.516-.158,2.564-.158,3.131a1.04,1.04,0,0,0,.145.633.58.58,0,0,0,.488.191,2.412,2.412,0,0,0,.7-.125l.349.283-.442,2.623a5.137,5.137,0,0,1-2.564.857,2.85,2.85,0,0,1-1.615-.666,3.168,3.168,0,0,1-.949-1.615h-.224a8.926,8.926,0,0,1-3.223,2.307,5.338,5.338,0,0,1-3.684-1.265A4.326,4.326,0,0,1,854,137.722q0-3.253,3.414-3.829l4.679-.791v-.916a1.962,1.962,0,0,0-.428-1.41,1.894,1.894,0,0,0-1.377-.428,5.92,5.92,0,0,0-2.043.409,14.624,14.624,0,0,0-2.511,1.3l-.316-.224-.567-3.256a13.616,13.616,0,0,1,3.065-1.232,12.278,12.278,0,0,1,3.223-.442A6.665,6.665,0,0,1,865.224,128.034Zm-5.853,7.955a1.2,1.2,0,0,0-.712.382,1.315,1.315,0,0,0-.237.857,1.63,1.63,0,0,0,.4,1.173,1.432,1.432,0,0,0,1.094.409,3.251,3.251,0,0,0,2.149-1.074l.033-2.274Z" transform="translate(-837.2 -119.637)" fill="#3e3e3e"/>
      <path id="Path_5" data-name="Path 5" d="M1107.875,17.366a2.5,2.5,0,0,1,.646,1.832,2.764,2.764,0,0,1-.725,2.01,2.587,2.587,0,0,1-1.931.745,2.41,2.41,0,0,1-1.832-.666,2.6,2.6,0,0,1-.633-1.865,2.735,2.735,0,0,1,.712-1.977,2.567,2.567,0,0,1,1.944-.745A2.419,2.419,0,0,1,1107.875,17.366Zm-4.218,15.686-.158-8.443,4.963-.382-.224,8.317.191,6.545h-5Z" transform="translate(-1070.163 -16.7)" fill="#3e3e3e"/>
      <path id="Path_6" data-name="Path 6" d="M1239.272,35.253l.224,6.545h-5l.25-6.07-.191-15.778,4.963-.349Z" transform="translate(-1192.623 -19.409)" fill="#3e3e3e"/>
      <path id="Path_7" data-name="Path 7" d="M1334.568,133.024l2.214,7.434h.283l2.149-6.986.567-2.88h4.238l-4.62,13.57a13.214,13.214,0,0,1-1.707,3.539,7.945,7.945,0,0,1-2.452,2.228,17.5,17.5,0,0,1-3.809,1.569l-.349-.033a12.092,12.092,0,0,1-2.182-2.972l.191-.475a11.989,11.989,0,0,0,3.1-.883,9.52,9.52,0,0,0,2.5-1.74l-5.378-14.7,4.745-.191Z" transform="translate(-1280.802 -123)" fill="#3e3e3e"/>
      <path id="Path_8" data-name="Path 8" d="M1588.572,35.253l.224,6.545h-5l.25-6.07-.191-15.778,4.963-.349Z" transform="translate(-1518.902 -19.409)" fill="#ea4d24"/>
      <path id="Path_9" data-name="Path 9" d="M1710.965,135.541l-8.284.066a3.7,3.7,0,0,0,1.14,2.432,3.852,3.852,0,0,0,2.59.791,14.064,14.064,0,0,0,4.429-.982l.382.25-.758,3.572a15.525,15.525,0,0,1-4.587.791,7.738,7.738,0,0,1-5.708-2.056,7.6,7.6,0,0,1-2.069-5.661,7.847,7.847,0,0,1,1.99-5.675A7.17,7.17,0,0,1,1705.5,127a6.267,6.267,0,0,1,4.567,1.582,5.834,5.834,0,0,1,1.628,4.4,10.659,10.659,0,0,1-.191,1.931Zm-3.6-3.1q0-2.185-1.9-2.182a2.379,2.379,0,0,0-1.773.712,3.92,3.92,0,0,0-.949,2.043l4.554-.125Z" transform="translate(-1625.669 -119.731)" fill="#ea4d24"/>
      <path id="Path_10" data-name="Path 10" d="M1938.624,128.034a3.823,3.823,0,0,1,1.457,3.21c0,.488-.02,1.041-.066,1.674s-.073,1.232-.092,1.806c-.105,1.516-.158,2.564-.158,3.131a1.04,1.04,0,0,0,.145.633.58.58,0,0,0,.488.191,2.412,2.412,0,0,0,.7-.125l.349.283-.442,2.623a5.137,5.137,0,0,1-2.564.857,2.85,2.85,0,0,1-1.615-.666,3.168,3.168,0,0,1-.949-1.615h-.224a8.923,8.923,0,0,1-3.223,2.307,5.338,5.338,0,0,1-3.684-1.265,4.326,4.326,0,0,1-1.344-3.355q0-3.253,3.414-3.829l4.679-.791v-.916a1.961,1.961,0,0,0-.428-1.41,1.894,1.894,0,0,0-1.377-.428,5.921,5.921,0,0,0-2.043.409,14.623,14.623,0,0,0-2.511,1.3l-.316-.224-.567-3.256a13.618,13.618,0,0,1,3.065-1.232,12.279,12.279,0,0,1,3.223-.442A6.664,6.664,0,0,1,1938.624,128.034Zm-5.853,7.955a1.2,1.2,0,0,0-.712.382,1.317,1.317,0,0,0-.237.857,1.63,1.63,0,0,0,.4,1.173,1.432,1.432,0,0,0,1.094.409,3.251,3.251,0,0,0,2.148-1.074l.033-2.274Z" transform="translate(-1839.857 -119.637)" fill="#ea4d24"/>
      <path id="Path_11" data-name="Path 11" d="M2184.483,130.905v4.587l-.508.158a2.674,2.674,0,0,0-1.173-.224,4,4,0,0,0-3.13,1.832v1.865l.224,6.545h-5l.25-6.044-.224-8.443,4.778-.382v2.847h.224q1.483-2.817,3.8-2.814C2183.85,130.84,2184.107,130.859,2184.483,130.905Z" transform="translate(-2071.044 -123.28)" fill="#ea4d24"/>
      <path id="Path_12" data-name="Path 12" d="M2356.15,135.169c.04-1.457-.547-2.182-1.773-2.182a4.171,4.171,0,0,0-2.406.949v3.513l.224,6.545h-5l.224-6.044-.191-8.443,4.778-.382v2.182h.191A10.179,10.179,0,0,1,2356,129a5.314,5.314,0,0,1,3.618,1.094,3.842,3.842,0,0,1,1.219,3.117l-.125,4.238.191,6.545h-5Z" transform="translate(-2231.989 -121.599)" fill="#ea4d24"/>
    </g>
  </g>
</svg>
