<svg xmlns="http://www.w3.org/2000/svg" width="39.752" height="35.277" viewBox="0 0 39.752 35.277">
  <g id="Group_3" data-name="Group 3" transform="translate(-1.818 -3.554)">
    <path id="Path_17" data-name="Path 17" d="M7.517,32.2a.531.531,0,0,0,.242.32l9.689,5.73a.527.527,0,0,0,.408.057L40.674,32.2a.532.532,0,0,0,.375-.651L33.79,4.45a.53.53,0,0,0-.65-.375L2.715,12.227a.53.53,0,0,0-.375.65L7.517,32.2ZM3.5,13.115l4.985,18.6L17.8,37.226l22.09-5.92L32.9,5.237,3.5,13.115Z" fill="#546e7a" stroke="#546e7a" stroke-width="1" fill-rule="evenodd"/>
    <path id="Path_18" data-name="Path 18" d="M27.976,8.158,9.721,13.05A.531.531,0,1,0,10,14.077L28.25,9.185a.531.531,0,0,0-.275-1.027Zm.816,3.045-6.086,1.63a.531.531,0,0,0,.275,1.025l6.086-1.63a.531.531,0,0,0-.275-1.025ZM18.9,13.853l-5.32,1.426a.531.531,0,1,0,.275,1.025l5.32-1.425a.531.531,0,0,0-.275-1.027Zm10.8.742-3.044.816a.531.531,0,0,0,.275,1.025l3.044-.814A.531.531,0,0,0,29.7,14.6Zm-6.086,1.63-8.3,2.225a.531.531,0,1,0,.275,1.027l8.3-2.225a.531.531,0,0,0-.275-1.027ZM12.966,19.079l-1.521.408a.531.531,0,1,0,.275,1.025l1.523-.408a.531.531,0,1,0-.276-1.025Zm17.641-1.091-7.6,2.062a.531.531,0,0,0,.279,1.025l7.6-2.062a.531.531,0,0,0-.279-1.025ZM19.966,20.865,12.361,22.9a.531.531,0,1,0,.275,1.025l7.606-2.038a.531.531,0,1,0-.275-1.027Z" transform="translate(1.823 1.7)" fill="#db5125" fill-rule="evenodd"/>
  </g>
</svg>
